<?xml version="1.0" encoding="UTF-8"?>
<svg xmlns="http://www.w3.org/2000/svg" viewBox="0 0 149.41 166.56">
  <defs>
    <style>
      .cls-1, .cls-2, .cls-3, .cls-4, .cls-5, .cls-6, .cls-7, .cls-8, .cls-9, .cls-10, .cls-11 {
        stroke-linecap: square;
      }

      .cls-1, .cls-2, .cls-3, .cls-4, .cls-5, .cls-6, .cls-7, .cls-8, .cls-9, .cls-10, .cls-11, .cls-12 {
        stroke: #000;
        stroke-width: 1.65px;
      }

      .cls-1, .cls-2, .cls-3, .cls-5, .cls-7, .cls-8, .cls-9, .cls-10 {
        stroke-miterlimit: 10;
      }

      .cls-1, .cls-12 {
        fill: none;
      }

      .cls-13 {
        isolation: isolate;
      }

      .cls-2, .cls-4 {
        fill: #a7a9ac;
      }

      .cls-3 {
        fill: #e6e7e8;
      }

      .cls-4, .cls-6, .cls-11, .cls-12 {
        stroke-linejoin: bevel;
      }

      .cls-5 {
        fill: #231f20;
      }

      .cls-14 {
        fill: #fff;
        stroke-width: 0px;
      }

      .cls-6 {
        fill: #fbfffe;
      }

      .cls-7 {
        fill: #006838;
      }

      .cls-8 {
        fill: #ed1c24;
      }

      .cls-9, .cls-11 {
        fill: #fdfffe;
      }

      .cls-15 {
        mix-blend-mode: overlay;
      }

      .cls-10 {
        fill: #009444;
      }
    </style>
  </defs>
  <g class="cls-13">
    <g id="Layer_2" data-name="Layer 2">
      <g id="Layer_1-2" data-name="Layer 1">
        <g>
          <polygon class="cls-4" points="143.75 58.69 143.75 77.48 126.84 42.41 115.47 42.41 115.47 29.85 108.98 29.85 105.15 26.01 105.15 7.69 106.53 5.79 112.5 11.26 112.5 15.42 120.39 15.42 120.39 34.69 130.86 34.69 130.86 45.19 136.83 45.19 136.83 54.78 140.59 54.78 140.59 58.69 143.75 58.69"/>
          <path class="cls-6" d="M115.47,29.85v12.56h-53.34l-13.91,11.19v-19.02l-21.84-15.19-9.64,9.64v16.5l4.44,4.44h3.99v8.58l5.39,1.51v7.74l-5.27,4.24v-3.78l-6.69-2.65v-11.23h-8.26v-29.51c0-1.42.57-2.79,1.57-3.79l11.72-11.72c1.38-1.38,3.58-1.53,5.13-.34l26,19.85c1.06.81,1.69,2.08,1.69,3.42v1.03h44.53V14.72c0-.86.27-1.69.78-2.39l3.38-4.64v18.32l3.84,3.84h6.49Z"/>
          <path class="cls-3" d="M140.59,38.5v16.27h-3.76v-9.59h-5.97v-10.5h-10.47V15.42h-7.89v-4.16l-5.97-5.47,3.06-4.2c.66-.9,1.95-1.03,2.77-.27l12.72,11.7,3.41,10.22,1.77.76,3.91,14.51h6.43Z"/>
          <line class="cls-1" x1="56.45" y1="37.87" x2="56.45" y2="33.33"/>
          <line class="cls-1" x1="100.98" y1="33.33" x2="105.15" y2="33.33"/>
          <polygon class="cls-7" points="80.29 72.06 80.29 80.51 63.65 80.51 61.85 81.46 48.23 88.65 36.28 94.95 27.32 99.68 18.87 98.8 18.61 98.72 16.85 98.17 16.85 79.25 25.3 72.06 30.57 67.82 48.23 53.61 62.13 42.41 66.65 42.41 66.65 46.26 62.38 46.26 62.38 52.5 56.14 52.5 56.14 56.29 60.37 56.29 60.37 63.48 68.36 63.48 68.36 72.06 80.29 72.06"/>
          <polygon class="cls-10" points="143.75 77.48 143.75 88.96 142.57 88.31 128.48 80.51 80.29 80.51 80.29 72.06 68.36 72.06 68.36 63.48 60.37 63.48 60.37 56.29 56.14 56.29 56.14 52.5 62.38 52.5 62.38 46.26 66.65 46.26 66.65 42.41 126.84 42.41 143.75 77.48"/>
          <path class="cls-9" d="M146.54,145.32l1.62,1.17-9.46,9.97s-1.75-.33-4.1-.67c-2.89-.42-6.7-.86-9.28-.72-4.67.25-12.87-1.13-18.8-6.18l-1.89,2.15h-8.96l-14.38,10.67-5.17,3.84-30.15-23.21-15.9,3.78-8.58-1.64-.32-2.16,10.79-2.16,5.68-2.8,8.33-1.98.63-3-2.9-11.98,11.35-11.6s3.91,1.26,5.3,2.65c1.39,1.39,9.21-1.17,9.21-1.17v11.76h6.31v2.65h20.31l6.05-3.78v-16.02h-3.03v-5.17h-6.18v-3.15h-12.74l-3.25,1.26h-4.07v-2.84h-4.79l-1.39-5.99-2.9-1.26-2.05-6.24,1.8-.95h64.84l14.09,7.8v5.32l-2.1-1.52h-8.96l-4.16,4.54h-5.3l-3.15,3.03h-4.92v14.25h5.42l4.29,7.57h18.88v11.35l5.59,6.05-2.8,5.55-2.17-1.05h-4.29v1.05h-2.5v.85h10.14Z"/>
          <path class="cls-4" d="M69.58,103.72v6.53s-7.82,2.55-9.21,1.17c-1.39-1.39-5.3-2.65-5.3-2.65l-11.35,11.6,2.9,11.98-.63,3-8.33,1.98-5.68,2.8-10.79,2.16-.43-2.88h3.77l6.04-5.03c-13.9,3.3-22.43,1.37-22.43,1.37v-.88l-7.32-3.03s19.8-2.27,32.42-10.34c12.61-8.07,14.98-32.86,14.98-32.86l13.62-7.19,2.05,6.24,2.9,1.26,1.39,5.99h-7.82v3.22l1.14,1.51,3.53,1.14v2.9h4.54Z"/>
          <path class="cls-2" d="M36.28,94.95c-1.88,8.89-7.45,13.31-7.45,13.31h-7.7l-4.29-3.28h-2.78v-2.4l4.54-1.52v-2.35l.25.08,8.45.88,8.97-4.73Z"/>
          <path class="cls-9" d="M30.57,134.39l-6.04,5.03h-3.77l-12.61-1.64v-2.02s8.52,1.93,22.43-1.37Z"/>
          <polygon class="cls-5" points="146.54 145.32 136.41 145.32 136.41 144.46 138.91 144.46 138.91 143.41 143.19 143.41 145.36 144.46 146.54 145.32"/>
          <rect class="cls-8" x="133.15" y="108.76" width="9.42" height="12.74"/>
          <polygon class="cls-9" points="142.57 93.63 142.57 101.32 134.29 101.32 134.29 106.37 133.28 106.37 133.28 108.76 130.25 108.76 130.25 121.51 123.69 121.51 119.4 113.94 115.47 113.94 137.3 92.11 140.47 92.11 142.57 93.63"/>
          <polyline class="cls-1" points="45.98 142.32 51.41 142.32 52.42 137.53 59.1 137.53 62.38 132.35"/>
          <line class="cls-1" x1="74.49" y1="94.95" x2="72.98" y2="94.95"/>
          <line class="cls-1" x1="60.37" y1="94.95" x2="51.91" y2="94.95"/>
          <polygon class="cls-5" points="142.57 101.32 142.57 108.76 133.28 108.76 133.28 106.37 134.29 106.37 134.29 101.32 142.57 101.32"/>
          <rect class="cls-5" x="130.25" y="108.76" width="2.9" height="12.74"/>
          <line class="cls-1" x1="143.19" y1="143.41" x2="136.41" y2="140.13"/>
          <path class="cls-1" d="M106.53,148.88l4.37-5.47s2.27-2.82,7.57-1.11"/>
          <path class="cls-2" d="M134.6,155.78l-9.65,5.91h-43.64l14.38-10.67h8.96l1.89-2.15c5.93,5.05,14.13,6.43,18.8,6.18,2.58-.14,6.38.3,9.28.72Z"/>
          <line class="cls-1" x1="35.14" y1="130.59" x2="30.57" y2="134.39"/>
          <polygon class="cls-5" points="102.24 104.85 102.24 109.8 95.43 109.8 95.43 104.86 99.22 104.85 102.24 104.85"/>
          <rect class="cls-5" x="86.73" y="109.8" width="6.24" height="14.85"/>
          <polygon class="cls-8" points="102.24 109.8 102.24 120.87 96.19 124.66 92.97 124.66 92.97 109.8 102.24 109.8"/>
          <polygon class="cls-9" points="99.22 99.68 99.22 104.85 95.43 104.86 95.43 109.8 86.73 109.8 86.73 124.66 75.88 124.66 75.88 122.01 69.57 122.01 69.57 121.06 94.8 99.68 99.22 99.68"/>
          <polygon class="cls-3" points="69.57 103.72 65.03 103.72 65.03 100.82 61.5 99.68 60.37 98.17 60.37 94.95 72.98 94.95 72.98 97.79 77.05 97.79 80.3 96.53 93.04 96.53 93.04 99.68 94.8 99.68 69.57 121.06 69.57 103.72"/>
          <path class="cls-11" d="M48.22,88.65s-2.37,24.79-14.98,32.86c-12.61,8.07-32.42,10.34-32.42,10.34v-7.32h6.56l12.86-6.68,1.26.5,7.32-10.09s5.58-4.42,7.45-13.31l11.94-6.3Z"/>
          <polygon class="cls-4" points="48.23 34.59 48.23 53.61 30.57 67.82 30.57 60.07 25.18 58.56 25.18 49.98 29.78 49.98 29.78 35.6 37.51 35.6 37.51 31.31 35.14 31.31 26.39 19.4 48.23 34.59"/>
          <polygon class="cls-3" points="37.51 31.31 37.51 35.6 29.78 35.6 29.78 49.98 21.19 49.98 16.75 45.54 16.75 29.04 26.39 19.4 35.14 31.31 37.51 31.31"/>
          <polyline class="cls-12" points="30.57 60.07 32.85 57.8 32.85 46.95 35.14 46.95 35.14 42.41"/>
          <polygon class="cls-3" points="137.3 92.11 115.47 113.94 113.98 113.94 113.98 99.68 118.9 99.68 122.05 96.65 127.35 96.65 131.51 92.11 137.3 92.11"/>
          <g class="cls-15">
            <path class="cls-14" d="M91.77,69.15c-5.01,0-9.08-4.07-9.08-9.08s4.07-9.08,9.08-9.08h20.95c5.01,0,9.08,4.07,9.08,9.08s-4.07,9.08-9.08,9.08h-20.95ZM105.8,64.96l-14.61-9.74c-2.42.29-4.31,2.36-4.31,4.85,0,2.7,2.19,4.89,4.89,4.89h14.03ZM98.69,55.18l14.61,9.74c2.42-.29,4.31-2.36,4.31-4.85,0-2.7-2.19-4.89-4.89-4.89h-14.03Z"/>
          </g>
        </g>
      </g>
    </g>
  </g>
</svg>