<?xml version="1.0" encoding="UTF-8"?>
<svg id="Layer_2" data-name="Layer 2" xmlns="http://www.w3.org/2000/svg" viewBox="0 0 403.56 64">
  <defs>
    <style>
      .cls-1 {
        stroke-width: 1.79px;
      }

      .cls-1, .cls-2 {
        fill: none;
        stroke: #fff;
        stroke-miterlimit: 10;
      }

      .cls-2 {
        stroke-width: 1.79px;
      }
    </style>
  </defs>
  <g id="Layer_1-2" data-name="Layer 1">
    <path class="cls-1" d="M92.68,62.99l17.37-22.07-17.06-21.58,11.2-.02,11.96,15.66h1.48s11.92-15.69,11.92-15.69l11.29-.02-17.1,21.63,17.43,22.02-11.39.02-12.15-16.01h-1.48s-12.11,16.05-12.11,16.05l-11.39.02Z"/>
    <path class="cls-1" d="M155.08,62.91l-.05-35.95-12.78.02v-7.7s12.76-.02,12.76-.02v-9.56c-.02-2.66.81-4.78,2.48-6.38,1.66-1.6,3.88-2.4,6.66-2.4l11.76-.02v7.7s-8.69.01-8.69.01c-1.79,0-2.68.89-2.68,2.66v7.97s13.16-.02,13.16-.02v7.7s-13.13.02-13.13.02l.05,35.95h-9.54Z"/>
    <path class="cls-1" d="M250.91,63.1c-5.5,0-10.07-1.16-13.7-3.51-3.63-2.35-5.86-5.9-6.69-10.66l8.42-1.94c.47,2.3,1.26,4.11,2.38,5.45,1.11,1.34,2.51,2.29,4.17,2.85,1.67.56,3.47.83,5.4.83,2.87,0,5.08-.54,6.63-1.6,1.55-1.06,2.32-2.44,2.32-4.12,0-1.68-.74-2.91-2.2-3.69-1.46-.78-3.63-1.42-6.5-1.92l-2.99-.5c-2.93-.5-5.59-1.22-7.99-2.17-2.4-.95-4.3-2.26-5.71-3.94-1.41-1.68-2.11-3.83-2.12-6.46,0-3.92,1.51-6.96,4.55-9.12,3.04-2.16,7.08-3.24,12.11-3.25,4.86,0,8.85,1.04,11.99,3.13,3.13,2.1,5.17,4.93,6.11,8.51l-8.42,2.28c-.53-2.52-1.65-4.29-3.34-5.33-1.7-1.03-3.81-1.55-6.32-1.54-2.46,0-4.39.44-5.79,1.31-1.4.87-2.1,2.09-2.1,3.66,0,1.68.69,2.91,2.07,3.69,1.38.78,3.23,1.37,5.58,1.76l3.07.5c3.1.5,5.94,1.2,8.52,2.09,2.58.89,4.61,2.18,6.11,3.85s2.24,3.92,2.25,6.71c0,4.14-1.6,7.36-4.82,9.66-3.22,2.3-7.55,3.45-12.99,3.46Z"/>
    <path class="cls-1" d="M293.38,63c-2.78,0-4.99-.79-6.63-2.38-1.64-1.59-2.46-3.72-2.46-6.38l-.04-27.22-12.6.02v-7.71s12.59-.02,12.59-.02l-.02-14.45h9.55s.02,14.44.02,14.44l13.62-.02v7.71s-13.61.02-13.61.02l.03,25.62c0,1.77.87,2.66,2.6,2.66h9.55s.01,7.7.01,7.7l-12.6.02Z"/>
    <path class="cls-1" d="M331.58,63c-3.4,0-6.43-.72-9.11-2.16-2.67-1.45-4.77-3.51-6.29-6.17-1.52-2.67-2.28-5.86-2.29-9.58l-.03-25.77h9.38s.03,25.15.03,25.15c0,3.72.98,6.46,2.92,8.22,1.94,1.77,4.65,2.65,8.11,2.64,3.82,0,6.9-1.24,9.23-3.71,2.33-2.47,3.5-6.03,3.49-10.67l-.03-21.68h9.38s.06,42.92.06,42.92h-9.19s0-6.43,0-6.43h-1.46c-.85,1.74-2.36,3.39-4.54,4.93-2.18,1.54-5.4,2.32-9.65,2.32Z"/>
    <path class="cls-1" d="M384.87,62.89c-5.5,0-10.07-1.16-13.7-3.51-3.63-2.35-5.86-5.9-6.69-10.65l8.42-1.94c.47,2.3,1.26,4.11,2.38,5.45,1.11,1.34,2.51,2.29,4.17,2.85,1.67.56,3.47.83,5.4.83,2.87,0,5.08-.54,6.63-1.6,1.55-1.06,2.32-2.44,2.32-4.12,0-1.68-.74-2.91-2.2-3.69-1.46-.78-3.63-1.42-6.5-1.92l-2.99-.5c-2.93-.5-5.59-1.22-7.99-2.17-2.4-.95-4.3-2.26-5.71-3.94-1.41-1.68-2.11-3.83-2.12-6.46,0-3.92,1.51-6.96,4.55-9.12,3.04-2.16,7.08-3.24,12.11-3.25,4.86,0,8.85,1.04,11.99,3.13,3.13,2.1,5.17,4.93,6.11,8.51l-8.42,2.28c-.53-2.52-1.65-4.29-3.34-5.33-1.7-1.03-3.81-1.55-6.32-1.54-2.46,0-4.39.44-5.79,1.31-1.4.87-2.1,2.09-2.1,3.66,0,1.68.69,2.91,2.07,3.69,1.38.78,3.23,1.37,5.58,1.76l3.07.5c3.1.5,5.94,1.2,8.52,2.09,2.58.89,4.61,2.18,6.11,3.85,1.49,1.68,2.24,3.92,2.25,6.71,0,4.14-1.6,7.36-4.82,9.66-3.22,2.3-7.55,3.45-12.99,3.46Z"/>
    <path class="cls-1" d="M22.73,62.96C10.69,62.96.89,53.16.89,41.12s9.8-21.84,21.84-21.84h50.39c12.04,0,21.84,9.8,21.84,21.84s-9.8,21.84-21.84,21.84H22.73ZM56.48,52.88L21.33,29.45c-5.83.69-10.36,5.67-10.36,11.67,0,6.48,5.27,11.76,11.76,11.76h33.75ZM39.37,29.36l35.15,23.43c5.83-.69,10.36-5.67,10.36-11.67,0-6.48-5.27-11.76-11.76-11.76h-33.75Z"/>
    <path class="cls-2" d="M203.46,63.1c-4.67,0-8.83-.8-12.48-2.42-3.64-1.62-6.48-3.97-8.52-7.04-2.04-3.07-3.06-6.73-3.06-10.97v-1.57s9.56-.01,9.56-.01v1.39c0,3.83,1.33,6.86,3.97,9.09,2.64,2.23,6.15,3.34,10.52,3.34s7.77-1.06,10.19-3.15c2.42-2.09,3.64-4.74,3.63-7.93v-.78c0-2.26-.58-4.09-1.74-5.48-1.16-1.39-2.7-2.42-4.65-3.09-1.94-.66-4.13-1-6.56-.99l-11.56.02v-10.54s22.36-12.66,22.36-12.66v-1.22s-34.23.05-34.23.05V.96s44.6-.06,44.6-.06l.02,12.37-21.38,12.22v1.22s3.92,0,3.92,0c3.22,0,6.25.57,9.11,1.73,2.85,1.16,5.18,2.93,6.97,5.3,1.79,2.38,2.69,5.4,2.7,9.05v1.04c0,3.89-.96,7.27-2.9,10.15-1.94,2.88-4.67,5.12-8.18,6.72-3.52,1.6-7.61,2.4-12.29,2.41Z"/>
  </g>
</svg>