<?xml version="1.0" encoding="UTF-8"?>
<svg id="Layer_2" data-name="Layer 2" xmlns="http://www.w3.org/2000/svg" viewBox="0 0 449.92 69.66">
  <defs>
    <style>
      .cls-1 {
        fill: #fff;
        stroke-width: 0px;
      }
    </style>
  </defs>
  <g id="Layer_1-2" data-name="Layer 1">
    <g>
      <path class="cls-1" d="M102.79,69.54l19.46-24.72-19.11-24.17,12.54-.02,13.4,17.53h1.66s13.35-17.57,13.35-17.57l12.65-.02-19.15,24.22,19.52,24.66-12.75.02-13.6-17.93h-1.66s-13.56,17.97-13.56,17.97l-12.75.02Z"/>
      <path class="cls-1" d="M172.66,69.44l-.05-40.26-14.31.02v-8.63s14.29-.02,14.29-.02v-10.71c-.02-2.97.91-5.36,2.78-7.14,1.86-1.79,4.35-2.68,7.46-2.69l13.17-.02v8.63s-9.73.01-9.73.01c-2.01,0-3.01,1-3,2.98v8.92s14.73-.02,14.73-.02v8.63s-14.71.02-14.71.02l.05,40.26h-10.68Z"/>
      <path class="cls-1" d="M279.98,69.66c-6.16,0-11.27-1.3-15.34-3.93-4.07-2.63-6.56-6.6-7.49-11.93l9.43-2.18c.53,2.57,1.42,4.61,2.66,6.11,1.25,1.5,2.81,2.57,4.67,3.19,1.87.62,3.88.93,6.05.93,3.21,0,5.68-.6,7.42-1.8,1.73-1.19,2.6-2.73,2.6-4.61,0-1.88-.82-3.26-2.46-4.13-1.64-.88-4.07-1.59-7.28-2.15l-3.34-.56c-3.28-.56-6.26-1.37-8.95-2.43-2.69-1.06-4.82-2.53-6.4-4.41-1.58-1.88-2.36-4.29-2.37-7.24,0-4.39,1.69-7.79,5.1-10.21,3.4-2.42,7.92-3.63,13.56-3.64,5.44,0,9.91,1.16,13.42,3.51,3.51,2.35,5.79,5.53,6.85,9.54l-9.43,2.55c-.59-2.82-1.84-4.81-3.74-5.97-1.9-1.16-4.26-1.73-7.08-1.73-2.75,0-4.91.49-6.49,1.47-1.57.97-2.36,2.34-2.35,4.09,0,1.88.77,3.26,2.32,4.13,1.54.88,3.62,1.53,6.25,1.97l3.44.56c3.47.56,6.65,1.34,9.54,2.34,2.88,1,5.16,2.44,6.84,4.32s2.51,4.39,2.52,7.52c0,4.64-1.79,8.25-5.39,10.82-3.6,2.57-8.45,3.87-14.54,3.88Z"/>
      <path class="cls-1" d="M327.54,69.54c-3.11,0-5.59-.89-7.42-2.67-1.84-1.78-2.76-4.17-2.76-7.14l-.04-30.48-14.12.02v-8.64s14.1-.02,14.1-.02l-.02-16.18h10.69s.02,16.17.02,16.17l15.26-.02v8.64s-15.24.02-15.24.02l.04,28.69c0,1.99.97,2.98,2.91,2.97h10.69s.01,8.62.01,8.62l-14.11.02Z"/>
      <path class="cls-1" d="M370.32,69.54c-3.81,0-7.21-.8-10.2-2.42-2.99-1.62-5.34-3.93-7.04-6.91-1.7-2.99-2.56-6.56-2.56-10.72l-.04-28.86h10.5s.04,28.17.04,28.17c0,4.16,1.1,7.23,3.28,9.21,2.18,1.98,5.2,2.97,9.08,2.96,4.28,0,7.73-1.39,10.34-4.16,2.61-2.77,3.92-6.75,3.91-11.95l-.03-24.28h10.5s.07,48.06.07,48.06h-10.3s-.01-7.2-.01-7.2h-1.63c-.95,1.95-2.65,3.79-5.09,5.52-2.44,1.72-6.05,2.59-10.8,2.6Z"/>
      <path class="cls-1" d="M429.99,69.42c-6.16,0-11.27-1.3-15.34-3.93-4.07-2.63-6.56-6.6-7.49-11.93l9.43-2.18c.53,2.57,1.42,4.61,2.66,6.11,1.25,1.5,2.81,2.57,4.67,3.19,1.87.62,3.88.93,6.05.93,3.21,0,5.68-.6,7.42-1.8,1.73-1.19,2.6-2.73,2.6-4.61,0-1.88-.82-3.26-2.46-4.13-1.64-.88-4.07-1.59-7.28-2.15l-3.34-.56c-3.28-.56-6.26-1.37-8.95-2.43-2.69-1.06-4.82-2.53-6.4-4.41-1.58-1.88-2.36-4.29-2.37-7.24,0-4.39,1.69-7.79,5.1-10.21,3.4-2.42,7.92-3.63,13.56-3.64,5.44,0,9.91,1.16,13.42,3.51,3.51,2.35,5.79,5.53,6.85,9.53l-9.43,2.55c-.59-2.82-1.84-4.81-3.74-5.97-1.9-1.16-4.26-1.73-7.08-1.73-2.75,0-4.91.49-6.49,1.47-1.57.97-2.36,2.34-2.35,4.09,0,1.88.77,3.26,2.32,4.13,1.54.88,3.62,1.53,6.24,1.97l3.44.56c3.47.56,6.65,1.34,9.54,2.34,2.88,1,5.16,2.44,6.84,4.32,1.67,1.88,2.51,4.39,2.52,7.52,0,4.64-1.79,8.25-5.39,10.82-3.6,2.57-8.45,3.87-14.54,3.88Z"/>
      <path class="cls-1" d="M24.45,69.5c-13.48,0-24.45-10.97-24.45-24.45s10.97-24.45,24.45-24.45h56.43c13.48,0,24.45,10.97,24.45,24.45s-10.97,24.45-24.45,24.45H24.45ZM62.24,58.21L22.88,31.97c-6.52.78-11.6,6.34-11.6,13.07,0,7.26,5.91,13.17,13.17,13.17h37.79ZM43.09,31.88l39.36,26.24c6.52-.78,11.6-6.34,11.6-13.07,0-7.26-5.91-13.17-13.17-13.17h-37.79Z"/>
      <path class="cls-1" d="M225.35,69.42c-5.22,0-9.86-.89-13.92-2.7-4.07-1.81-7.24-4.43-9.51-7.86-2.27-3.43-3.41-7.51-3.42-12.24v-1.75s10.67-.01,10.67-.01v1.55c0,4.28,1.49,7.66,4.44,10.15,2.95,2.49,6.86,3.73,11.74,3.73s8.67-1.18,11.37-3.51c2.71-2.34,4.06-5.29,4.05-8.85v-.87c0-2.53-.65-4.57-1.94-6.12-1.29-1.55-3.02-2.7-5.19-3.44-2.17-.74-4.61-1.11-7.32-1.11l-12.9.02-.02-11.76,24.98-14.13v-1.36s-38.21.05-38.21.05V.07s49.77-.07,49.77-.07l.02,13.8-23.86,13.64v1.36s4.37,0,4.37,0c3.59,0,6.98.64,10.16,1.93,3.19,1.29,5.78,3.26,7.78,5.92,2,2.65,3.01,6.02,3.01,10.1v1.17c0,4.34-1.07,8.12-3.23,11.33-2.16,3.21-5.21,5.71-9.13,7.5-3.93,1.79-8.5,2.68-13.71,2.69Z"/>
    </g>
  </g>
</svg>