<?xml version="1.0" encoding="UTF-8"?>
<svg xmlns="http://www.w3.org/2000/svg" viewBox="0 0 217.59 242.57">
  <defs>
    <style>
      .cls-1, .cls-2, .cls-3, .cls-4, .cls-5, .cls-6, .cls-7, .cls-8, .cls-9, .cls-10, .cls-11, .cls-12 {
        stroke: #000;
        stroke-width: 2.4px;
      }

      .cls-1, .cls-2, .cls-3, .cls-4, .cls-5, .cls-7, .cls-8, .cls-9, .cls-10, .cls-11, .cls-12 {
        stroke-linecap: square;
      }

      .cls-1, .cls-4 {
        fill: #a7a9ac;
      }

      .cls-1, .cls-5, .cls-6, .cls-11 {
        stroke-linejoin: bevel;
      }

      .cls-2 {
        fill: #262262;
      }

      .cls-2, .cls-3, .cls-4, .cls-7, .cls-8, .cls-9, .cls-10, .cls-12 {
        stroke-miterlimit: 10;
      }

      .cls-13 {
        isolation: isolate;
      }

      .cls-3 {
        fill: #e6e7e8;
      }

      .cls-5, .cls-12 {
        fill: #fdfffe;
      }

      .cls-6, .cls-7 {
        fill: none;
      }

      .cls-14 {
        fill: #fff;
        stroke-width: 0px;
      }

      .cls-8 {
        fill: #131333;
      }

      .cls-9 {
        fill: #231f20;
      }

      .cls-15 {
        mix-blend-mode: overlay;
      }

      .cls-10 {
        fill: #ed1c24;
      }

      .cls-11 {
        fill: #fbfffe;
      }
    </style>
  </defs>
  <g class="cls-13">
    <g id="Layer_2" data-name="Layer 2">
      <g id="Layer_1-2" data-name="Layer 1">
        <g>
          <g>
            <polygon class="cls-1" points="209.34 85.47 209.34 112.84 184.73 61.77 168.17 61.77 168.17 43.47 158.72 43.47 153.13 37.89 153.13 11.2 155.15 8.43 163.84 16.39 163.84 22.46 175.33 22.46 175.33 50.52 190.58 50.52 190.58 65.81 199.27 65.81 199.27 79.77 204.75 79.77 204.75 85.47 209.34 85.47"/>
            <path class="cls-11" d="M168.17,43.47v18.29h-77.68l-20.25,16.3v-27.69l-31.81-22.12-14.04,14.04v24.03l6.47,6.47h5.81v12.49l7.85,2.2v11.28l-7.68,6.18v-5.51l-9.74-3.86v-16.35h-12.03v-42.97c0-2.07.83-4.06,2.29-5.52l17.06-17.06c2.01-2.01,5.21-2.23,7.47-.5l37.86,28.91c1.55,1.19,2.46,3.02,2.46,4.98v1.5h64.85v-27.1c0-1.25.4-2.47,1.13-3.48l4.93-6.76v26.69l5.59,5.59h9.45Z"/>
            <path class="cls-3" d="M204.75,56.07v23.7h-5.48v-13.96h-8.69v-15.29h-15.25v-28.06h-11.48v-6.06l-8.7-7.96,4.45-6.11c.96-1.31,2.84-1.49,4.03-.4l18.52,17.04,4.96,14.88,2.57,1.1,5.7,21.13h9.37Z"/>
            <line class="cls-7" x1="82.22" y1="55.16" x2="82.22" y2="48.54"/>
            <line class="cls-7" x1="147.06" y1="48.54" x2="153.13" y2="48.54"/>
            <polygon class="cls-8" points="116.94 104.94 116.94 117.25 92.69 117.25 90.07 118.63 70.23 129.1 52.84 138.28 39.78 145.17 27.47 143.88 27.11 143.77 24.53 142.97 24.53 115.41 36.84 104.94 44.52 98.76 70.23 78.07 90.49 61.77 97.07 61.77 97.07 67.37 90.85 67.37 90.85 76.46 81.76 76.46 81.76 81.97 87.91 81.97 87.91 92.45 99.55 92.45 99.55 104.94 116.94 104.94"/>
            <polygon class="cls-2" points="209.34 112.84 209.34 129.56 207.63 128.61 187.11 117.25 116.94 117.25 116.94 104.94 99.55 104.94 99.55 92.45 87.91 92.45 87.91 81.97 81.76 81.97 81.76 76.46 90.85 76.46 90.85 67.37 97.07 67.37 97.07 61.77 184.73 61.77 209.34 112.84"/>
            <path class="cls-12" d="M213.42,211.63l2.36,1.7-13.78,14.51s-2.54-.48-5.96-.97c-4.21-.61-9.75-1.25-13.51-1.05-6.8.37-18.74-1.65-27.37-9l-2.76,3.12h-13.04l-20.94,15.54-7.53,5.59-43.9-33.8-23.15,5.51-12.49-2.39-.47-3.15,15.72-3.15,8.27-4.07,12.13-2.88.92-4.37-4.23-17.45,16.54-16.9s5.69,1.84,7.72,3.86c2.02,2.02,13.41-1.7,13.41-1.7v17.13h9.19v3.86h29.57l8.82-5.51v-23.33h-4.41v-7.53h-9v-4.59h-18.55l-4.73,1.83h-5.92v-4.14h-6.98l-2.02-8.72-4.23-1.84-2.98-9.09,2.62-1.38h94.43l20.51,11.36v7.75l-3.06-2.21h-13.04l-6.06,6.61h-7.72l-4.59,4.41h-7.17v20.76h7.9l6.25,11.02h27.49v16.53l8.14,8.82-4.07,8.08-3.16-1.53h-6.24v1.53h-3.65v1.24h14.76Z"/>
            <path class="cls-1" d="M101.33,151.05v9.51s-11.39,3.72-13.41,1.7c-2.02-2.02-7.72-3.86-7.72-3.86l-16.54,16.9,4.23,17.45-.92,4.37-12.13,2.88-8.27,4.07-15.72,3.15-.63-4.19h5.49l8.8-7.32c-20.25,4.8-32.66,1.99-32.66,1.99v-1.29l-10.66-4.41s28.84-3.3,47.21-15.06c18.37-11.76,21.82-47.85,21.82-47.85l19.84-10.47,2.98,9.09,4.23,1.84,2.02,8.72h-11.39v4.69l1.65,2.2,5.14,1.65v4.23h6.61Z"/>
            <path class="cls-4" d="M52.84,138.28c-2.74,12.95-10.86,19.38-10.86,19.38h-11.21l-6.25-4.77h-4.04v-3.49l6.61-2.21v-3.42l.37.12,12.31,1.29,13.06-6.89Z"/>
            <path class="cls-12" d="M44.52,195.72l-8.8,7.32h-5.49l-18.37-2.39v-2.94s12.41,2.81,32.66-1.99Z"/>
            <polygon class="cls-9" points="213.41 211.63 198.65 211.63 198.65 210.38 202.3 210.38 202.3 208.86 208.54 208.86 211.7 210.38 213.41 211.63"/>
            <rect class="cls-10" x="193.91" y="158.4" width="13.72" height="18.55"/>
            <polygon class="cls-12" points="207.63 136.35 207.63 147.56 195.57 147.56 195.57 154.91 194.1 154.91 194.1 158.4 189.69 158.4 189.69 176.95 180.14 176.95 173.89 165.93 168.17 165.93 199.95 134.15 204.57 134.15 207.63 136.35"/>
            <polyline class="cls-7" points="66.97 207.26 74.87 207.26 76.34 200.28 86.07 200.28 90.85 192.75"/>
            <line class="cls-7" x1="108.49" y1="138.28" x2="106.28" y2="138.28"/>
            <line class="cls-7" x1="87.91" y1="138.28" x2="75.6" y2="138.28"/>
            <polygon class="cls-9" points="207.63 147.56 207.63 158.4 194.09 158.4 194.09 154.91 195.56 154.91 195.56 147.56 207.63 147.56"/>
            <rect class="cls-9" x="189.68" y="158.4" width="4.23" height="18.55"/>
            <line class="cls-7" x1="208.54" y1="208.86" x2="198.65" y2="204.08"/>
            <path class="cls-7" d="M155.15,216.82l6.37-7.96s3.31-4.1,11.02-1.62"/>
            <path class="cls-4" d="M196.03,226.86l-14.06,8.61h-63.56l20.94-15.54h13.04l2.76-3.12c8.63,7.35,20.57,9.37,27.37,9,3.75-.2,9.29.44,13.51,1.05Z"/>
            <line class="cls-7" x1="51.17" y1="190.18" x2="44.52" y2="195.72"/>
            <polygon class="cls-9" points="148.9 152.7 148.9 159.91 138.98 159.91 138.98 152.72 144.49 152.7 148.9 152.7"/>
            <rect class="cls-9" x="126.31" y="159.91" width="9.09" height="21.63"/>
            <polygon class="cls-10" points="148.9 159.91 148.9 176.03 140.08 181.54 135.4 181.54 135.4 159.91 148.9 159.91"/>
            <polygon class="cls-12" points="144.49 145.17 144.49 152.7 138.98 152.72 138.98 159.91 126.31 159.91 126.31 181.54 110.51 181.54 110.51 177.69 101.32 177.69 101.32 176.31 138.06 145.17 144.49 145.17"/>
            <polygon class="cls-3" points="101.32 151.05 94.71 151.05 94.71 146.82 89.57 145.17 87.91 142.97 87.91 138.28 106.28 138.28 106.28 142.41 112.21 142.41 116.94 140.58 135.49 140.58 135.49 145.17 138.06 145.17 101.32 176.31 101.32 151.05"/>
            <path class="cls-5" d="M70.23,129.1s-3.45,36.1-21.82,47.85c-18.37,11.76-47.21,15.06-47.21,15.06v-10.66h9.55l18.74-9.73,1.84.73,10.66-14.7s8.12-6.44,10.86-19.38l17.39-9.18Z"/>
            <polygon class="cls-1" points="70.23 50.38 70.23 78.07 44.52 98.76 44.52 87.49 36.67 85.28 36.67 72.79 43.37 72.79 43.37 51.85 54.63 51.85 54.63 45.6 51.17 45.6 38.43 28.26 70.23 50.38"/>
            <polygon class="cls-3" points="54.63 45.6 54.63 51.85 43.37 51.85 43.37 72.79 30.86 72.79 24.39 66.32 24.39 42.29 38.43 28.26 51.17 45.6 54.63 45.6"/>
            <polyline class="cls-6" points="44.52 87.49 47.83 84.17 47.83 68.38 51.17 68.38 51.17 61.77"/>
            <polygon class="cls-3" points="199.95 134.15 168.17 165.93 165.99 165.93 165.99 145.17 173.15 145.17 177.74 140.76 185.46 140.76 191.52 134.15 199.95 134.15"/>
          </g>
          <g class="cls-15">
            <path class="cls-14" d="M133.64,100.71c-7.29,0-13.22-5.93-13.22-13.22s5.93-13.22,13.22-13.22h30.51c7.29,0,13.22,5.93,13.22,13.22s-5.93,13.22-13.22,13.22h-30.51ZM154.08,94.61l-21.28-14.19c-3.53.42-6.27,3.43-6.27,7.07,0,3.93,3.19,7.12,7.12,7.12h20.43ZM143.72,80.37l21.28,14.19c3.53-.42,6.27-3.43,6.27-7.07,0-3.93-3.19-7.12-7.12-7.12h-20.43Z"/>
          </g>
        </g>
      </g>
    </g>
  </g>
</svg>