<?xml version="1.0" encoding="UTF-8"?>
<svg id="Layer_2" data-name="Layer 2" xmlns="http://www.w3.org/2000/svg" viewBox="0 0 577.84 116.23">
  <defs>
    <style>
      .cls-1, .cls-2, .cls-3, .cls-4, .cls-5, .cls-6, .cls-7, .cls-8, .cls-9, .cls-10, .cls-11, .cls-12 {
        stroke: #000;
        stroke-width: 1.15px;
      }

      .cls-1, .cls-2, .cls-13 {
        fill: none;
      }

      .cls-1, .cls-3, .cls-9, .cls-12 {
        stroke-linejoin: bevel;
      }

      .cls-2, .cls-3, .cls-4, .cls-5, .cls-6, .cls-7, .cls-8, .cls-9, .cls-10, .cls-11, .cls-12 {
        stroke-linecap: square;
      }

      .cls-2, .cls-4, .cls-5, .cls-6, .cls-13, .cls-7, .cls-8, .cls-10, .cls-11 {
        stroke-miterlimit: 10;
      }

      .cls-3, .cls-10 {
        fill: #fdfffe;
      }

      .cls-4 {
        fill: #ed1c24;
      }

      .cls-5 {
        fill: #131333;
      }

      .cls-6 {
        fill: #262262;
      }

      .cls-13 {
        stroke: #fff;
        stroke-width: 2px;
      }

      .cls-7, .cls-12 {
        fill: #a7a9ac;
      }

      .cls-8 {
        fill: #231f20;
      }

      .cls-9 {
        fill: #fbfffe;
      }

      .cls-11 {
        fill: #e6e7e8;
      }
    </style>
  </defs>
  <g id="Layer_1-2" data-name="Layer 1">
    <g>
      <path class="cls-13" d="M229.71,92.75l19.46-24.72-19.11-24.17,12.54-.02,13.4,17.53h1.66s13.35-17.57,13.35-17.57l12.65-.02-19.15,24.22,19.52,24.66-12.75.02-13.6-17.93h-1.66s-13.56,17.97-13.56,17.97l-12.75.02Z"/>
      <path class="cls-13" d="M299.58,92.66l-.05-40.26-14.31.02v-8.63s14.29-.02,14.29-.02v-10.71c-.02-2.97.91-5.36,2.78-7.14,1.86-1.79,4.35-2.68,7.46-2.69l13.17-.02v8.63s-9.73.01-9.73.01c-2.01,0-3.01,1-3,2.98v8.92s14.73-.02,14.73-.02v8.63s-14.71.02-14.71.02l.05,40.26h-10.68Z"/>
      <path class="cls-13" d="M406.9,92.87c-6.16,0-11.27-1.3-15.34-3.93-4.07-2.63-6.56-6.6-7.49-11.93l9.43-2.18c.53,2.57,1.42,4.61,2.66,6.11,1.25,1.5,2.81,2.57,4.67,3.19,1.87.62,3.88.93,6.05.93,3.21,0,5.68-.6,7.42-1.8,1.73-1.19,2.6-2.73,2.6-4.61,0-1.88-.82-3.26-2.46-4.13-1.64-.88-4.07-1.59-7.28-2.15l-3.34-.56c-3.28-.56-6.26-1.37-8.95-2.43-2.69-1.06-4.82-2.53-6.4-4.41-1.58-1.88-2.36-4.29-2.37-7.24,0-4.39,1.69-7.79,5.1-10.21,3.4-2.42,7.92-3.63,13.56-3.64,5.44,0,9.91,1.16,13.42,3.51,3.51,2.35,5.79,5.53,6.85,9.54l-9.43,2.55c-.59-2.82-1.84-4.81-3.74-5.97-1.9-1.16-4.26-1.73-7.08-1.73-2.75,0-4.91.49-6.49,1.47-1.57.97-2.36,2.34-2.35,4.09,0,1.88.77,3.26,2.32,4.13,1.54.88,3.62,1.53,6.25,1.97l3.44.56c3.47.56,6.65,1.34,9.54,2.34,2.88,1,5.16,2.44,6.84,4.32s2.51,4.39,2.52,7.52c0,4.64-1.79,8.25-5.39,10.82-3.6,2.57-8.45,3.87-14.54,3.88Z"/>
      <path class="cls-13" d="M454.46,92.75c-3.11,0-5.59-.89-7.42-2.67-1.84-1.78-2.76-4.17-2.76-7.14l-.04-30.48-14.12.02v-8.64s14.1-.02,14.1-.02l-.02-16.18h10.69s.02,16.17.02,16.17l15.26-.02v8.64s-15.24.02-15.24.02l.04,28.69c0,1.99.97,2.98,2.91,2.97h10.69s.01,8.62.01,8.62l-14.11.02Z"/>
      <path class="cls-13" d="M497.24,92.75c-3.81,0-7.21-.8-10.2-2.42-2.99-1.62-5.34-3.93-7.04-6.91-1.7-2.99-2.56-6.56-2.56-10.72l-.04-28.86h10.5s.04,28.17.04,28.17c0,4.16,1.1,7.23,3.28,9.21,2.18,1.98,5.2,2.97,9.08,2.96,4.28,0,7.73-1.39,10.34-4.16,2.61-2.77,3.92-6.75,3.91-11.95l-.03-24.28h10.5s.07,48.06.07,48.06h-10.3s-.01-7.2-.01-7.2h-1.63c-.95,1.95-2.65,3.79-5.09,5.52-2.44,1.72-6.05,2.59-10.8,2.6Z"/>
      <path class="cls-13" d="M556.9,92.64c-6.16,0-11.27-1.3-15.34-3.93-4.07-2.63-6.56-6.6-7.49-11.93l9.43-2.18c.53,2.57,1.42,4.61,2.66,6.11,1.25,1.5,2.81,2.57,4.67,3.19,1.87.62,3.88.93,6.05.93,3.21,0,5.68-.6,7.42-1.8,1.73-1.19,2.6-2.73,2.6-4.61,0-1.88-.82-3.26-2.46-4.13-1.64-.88-4.07-1.59-7.28-2.15l-3.34-.56c-3.28-.56-6.26-1.37-8.95-2.43-2.69-1.06-4.82-2.53-6.4-4.41-1.58-1.88-2.36-4.29-2.37-7.24,0-4.39,1.69-7.79,5.1-10.21,3.4-2.42,7.92-3.63,13.56-3.64,5.44,0,9.91,1.16,13.42,3.51,3.51,2.35,5.79,5.53,6.85,9.53l-9.43,2.55c-.59-2.82-1.84-4.81-3.74-5.97-1.9-1.16-4.26-1.73-7.08-1.73-2.75,0-4.91.49-6.49,1.47-1.57.97-2.36,2.34-2.35,4.09,0,1.88.77,3.26,2.32,4.13,1.54.88,3.62,1.53,6.24,1.97l3.44.56c3.47.56,6.65,1.34,9.54,2.34,2.88,1,5.16,2.44,6.84,4.32,1.67,1.88,2.51,4.39,2.52,7.52,0,4.64-1.79,8.25-5.39,10.82-3.6,2.57-8.45,3.87-14.54,3.88Z"/>
      <path class="cls-13" d="M151.37,92.71c-13.48,0-24.45-10.97-24.45-24.45s10.97-24.45,24.45-24.45h56.43c13.48,0,24.45,10.97,24.45,24.45s-10.97,24.45-24.45,24.45h-56.43ZM189.16,81.42l-39.36-26.24c-6.52.78-11.6,6.34-11.6,13.07,0,7.26,5.91,13.17,13.17,13.17h37.79ZM170.01,55.09l39.36,26.24c6.52-.78,11.6-6.34,11.6-13.07,0-7.26-5.91-13.17-13.17-13.17h-37.79Z"/>
      <g>
        <polygon class="cls-12" points="100.31 40.95 100.31 54.07 88.51 29.6 80.58 29.6 80.58 20.83 76.05 20.83 73.37 18.15 73.37 5.37 74.34 4.04 78.51 7.85 78.51 10.76 84.01 10.76 84.01 24.21 91.32 24.21 91.32 31.53 95.48 31.53 95.48 38.22 98.11 38.22 98.11 40.95 100.31 40.95"/>
        <path class="cls-9" d="M80.58,20.83v8.77h-37.22l-9.7,7.81v-13.27l-15.24-10.6-6.73,6.73v11.51l3.1,3.1h2.78v5.99l3.76,1.06v5.4l-3.68,2.96v-2.64l-4.67-1.85v-7.83h-5.77v-20.59c0-.99.4-1.94,1.1-2.65l8.18-8.18c.97-.97,2.5-1.07,3.58-.24l18.14,13.85c.74.57,1.18,1.45,1.18,2.38v.72h31.07v-12.99c0-.6.19-1.18.54-1.67l2.36-3.24v12.79l2.68,2.68h4.53Z"/>
        <path class="cls-11" d="M98.11,26.87v11.36h-2.63v-6.69h-4.17v-7.33h-7.31v-13.45h-5.5v-2.91l-4.17-3.82,2.13-2.93c.46-.63,1.36-.72,1.93-.19l8.87,8.17,2.38,7.13,1.23.53,2.73,10.12h4.49Z"/>
        <line class="cls-2" x1="39.39" y1="26.43" x2="39.39" y2="23.26"/>
        <line class="cls-2" x1="70.47" y1="23.26" x2="73.37" y2="23.26"/>
        <polygon class="cls-5" points="56.03 50.28 56.03 56.18 44.41 56.18 43.16 56.84 33.65 61.86 25.32 66.26 19.06 69.56 13.16 68.94 12.99 68.89 11.76 68.5 11.76 55.3 17.65 50.28 21.33 47.32 33.65 37.41 43.36 29.6 46.51 29.6 46.51 32.28 43.53 32.28 43.53 36.64 39.17 36.64 39.17 39.28 42.12 39.28 42.12 44.3 47.7 44.3 47.7 50.28 56.03 50.28"/>
        <polygon class="cls-6" points="100.31 54.07 100.31 62.08 99.49 61.62 89.66 56.18 56.03 56.18 56.03 50.28 47.7 50.28 47.7 44.3 42.12 44.3 42.12 39.28 39.17 39.28 39.17 36.64 43.53 36.64 43.53 32.28 46.51 32.28 46.51 29.6 88.51 29.6 100.31 54.07"/>
        <path class="cls-10" d="M102.26,101.4l1.13.81-6.6,6.95s-1.22-.23-2.86-.47c-2.02-.29-4.67-.6-6.47-.5-3.26.18-8.98-.79-13.12-4.31l-1.32,1.5h-6.25l-10.03,7.45-3.61,2.68-21.04-16.2-11.09,2.64-5.98-1.14-.23-1.51,7.53-1.51,3.96-1.95,5.81-1.38.44-2.09-2.02-8.36,7.92-8.1s2.73.88,3.7,1.85c.97.97,6.43-.81,6.43-.81v8.21h4.4v1.85h14.17l4.22-2.64v-11.18h-2.11v-3.61h-4.31v-2.2h-8.89l-2.27.88h-2.84v-1.98h-3.35l-.97-4.18-2.02-.88-1.43-4.36,1.25-.66h45.24l9.83,5.44v3.71l-1.47-1.06h-6.25l-2.91,3.17h-3.7l-2.2,2.11h-3.43v9.95h3.79l2.99,5.28h13.17v7.92l3.9,4.22-1.95,3.87-1.51-.73h-2.99v.73h-1.75v.6h7.07Z"/>
        <path class="cls-12" d="M48.55,72.38v4.55s-5.46,1.78-6.43.81c-.97-.97-3.7-1.85-3.7-1.85l-7.92,8.1,2.02,8.36-.44,2.09-5.81,1.38-3.96,1.95-7.53,1.51-.3-2.01h2.63l4.22-3.51c-9.7,2.3-15.65.96-15.65.96v-.62l-5.11-2.11s13.82-1.58,22.62-7.22c8.8-5.63,10.45-22.93,10.45-22.93l9.51-5.02,1.43,4.36,2.02.88.97,4.18h-5.46v2.25l.79,1.06,2.46.79v2.02h3.17Z"/>
        <path class="cls-7" d="M25.32,66.26c-1.31,6.2-5.2,9.29-5.2,9.29h-5.37l-2.99-2.29h-1.94v-1.67l3.17-1.06v-1.64l.18.06,5.9.62,6.26-3.3Z"/>
        <path class="cls-10" d="M21.33,93.78l-4.22,3.51h-2.63l-8.8-1.14v-1.41s5.95,1.35,15.65-.96Z"/>
        <polygon class="cls-8" points="102.26 101.4 95.19 101.4 95.19 100.81 96.93 100.81 96.93 100.08 99.92 100.08 101.44 100.81 102.26 101.4"/>
        <rect class="cls-4" x="92.91" y="75.9" width="6.57" height="8.89"/>
        <polygon class="cls-10" points="99.49 65.33 99.49 70.7 93.71 70.7 93.71 74.23 93 74.23 93 75.9 90.89 75.9 90.89 84.79 86.31 84.79 83.32 79.51 80.58 79.51 95.81 64.28 98.02 64.28 99.49 65.33"/>
        <polyline class="cls-2" points="32.09 99.31 35.87 99.31 36.58 95.97 41.24 95.97 43.53 92.36"/>
        <line class="cls-2" x1="51.98" y1="66.26" x2="50.93" y2="66.26"/>
        <line class="cls-2" x1="42.12" y1="66.26" x2="36.23" y2="66.26"/>
        <polygon class="cls-8" points="99.49 70.7 99.49 75.9 93 75.9 93 74.23 93.71 74.23 93.71 70.7 99.49 70.7"/>
        <rect class="cls-8" x="90.89" y="75.9" width="2.02" height="8.89"/>
        <line class="cls-2" x1="99.92" y1="100.08" x2="95.19" y2="97.79"/>
        <path class="cls-2" d="M74.34,103.89l3.05-3.81s1.58-1.97,5.28-.78"/>
        <path class="cls-7" d="M93.93,108.7l-6.74,4.13h-30.46l10.03-7.45h6.25l1.32-1.5c4.14,3.52,9.86,4.49,13.12,4.31,1.8-.1,4.45.21,6.47.5Z"/>
        <line class="cls-2" x1="24.52" y1="91.13" x2="21.33" y2="93.78"/>
        <polygon class="cls-8" points="71.35 73.17 71.35 76.62 66.59 76.62 66.59 73.18 69.24 73.17 71.35 73.17"/>
        <rect class="cls-8" x="60.52" y="76.62" width="4.36" height="10.36"/>
        <polygon class="cls-4" points="71.35 76.62 71.35 84.35 67.12 86.99 64.88 86.99 64.88 76.62 71.35 76.62"/>
        <polygon class="cls-10" points="69.24 69.56 69.24 73.17 66.59 73.18 66.59 76.62 60.52 76.62 60.52 86.99 52.95 86.99 52.95 85.14 48.55 85.14 48.55 84.48 66.15 69.56 69.24 69.56"/>
        <polygon class="cls-11" points="48.55 72.38 45.38 72.38 45.38 70.35 42.92 69.56 42.12 68.5 42.12 66.26 50.93 66.26 50.93 68.24 53.76 68.24 56.03 67.36 64.92 67.36 64.92 69.56 66.15 69.56 48.55 84.48 48.55 72.38"/>
        <path class="cls-3" d="M33.65,61.86s-1.65,17.3-10.45,22.93c-8.8,5.63-22.62,7.22-22.62,7.22v-5.11h4.58l8.98-4.66.88.35,5.11-7.04s3.89-3.08,5.2-9.29l8.33-4.4Z"/>
        <polygon class="cls-12" points="33.65 24.14 33.65 37.41 21.33 47.32 21.33 41.92 17.57 40.86 17.57 34.88 20.78 34.88 20.78 24.84 26.18 24.84 26.18 21.85 24.52 21.85 18.41 13.54 33.65 24.14"/>
        <polygon class="cls-11" points="26.18 21.85 26.18 24.84 20.78 24.84 20.78 34.88 14.79 34.88 11.69 31.78 11.69 20.26 18.41 13.54 24.52 21.85 26.18 21.85"/>
        <polyline class="cls-1" points="21.33 41.92 22.92 40.33 22.92 32.77 24.52 32.77 24.52 29.6"/>
        <polygon class="cls-11" points="95.81 64.28 80.58 79.51 79.53 79.51 79.53 69.56 82.97 69.56 85.17 67.45 88.86 67.45 91.77 64.28 95.81 64.28"/>
      </g>
      <path class="cls-13" d="M352.88,92.64c-5.22,0-9.86-.89-13.92-2.7-4.07-1.81-7.24-4.43-9.51-7.86-2.27-3.43-3.41-7.51-3.42-12.24v-1.75s10.67-.01,10.67-.01v1.55c0,4.28,1.49,7.66,4.44,10.15,2.95,2.49,6.86,3.73,11.74,3.73s8.67-1.18,11.37-3.51c2.71-2.34,4.06-5.29,4.05-8.85v-.87c0-2.53-.65-4.57-1.94-6.12-1.29-1.55-3.02-2.7-5.19-3.44-2.17-.74-4.61-1.11-7.32-1.11l-12.9.02-.02-11.76,24.98-14.13v-1.36s-38.21.05-38.21.05v-9.14s49.77-.07,49.77-.07l.02,13.8-23.86,13.64v1.36s4.37,0,4.37,0c3.59,0,6.98.64,10.16,1.93,3.19,1.29,5.78,3.26,7.78,5.92,2,2.65,3.01,6.02,3.01,10.1v1.17c0,4.34-1.07,8.12-3.23,11.33-2.16,3.21-5.21,5.71-9.13,7.5-3.93,1.79-8.5,2.68-13.71,2.69Z"/>
    </g>
  </g>
</svg>