<?xml version="1.0" encoding="UTF-8"?>
<svg id="Layer_2" data-name="Layer 2" xmlns="http://www.w3.org/2000/svg" viewBox="0 0 389.31 78.44">
  <defs>
    <style>
      .cls-1 {
        fill: #ed1c24;
      }

      .cls-1, .cls-2, .cls-3, .cls-4, .cls-5, .cls-6, .cls-7, .cls-8, .cls-9, .cls-10, .cls-11, .cls-12 {
        stroke: #000;
        stroke-width: .78px;
      }

      .cls-1, .cls-2, .cls-4, .cls-5, .cls-6, .cls-7, .cls-8, .cls-9, .cls-10, .cls-11, .cls-12 {
        stroke-linecap: square;
      }

      .cls-1, .cls-4, .cls-5, .cls-6, .cls-7, .cls-8, .cls-9, .cls-11 {
        stroke-miterlimit: 10;
      }

      .cls-2 {
        fill: #fbfffe;
      }

      .cls-2, .cls-3, .cls-10, .cls-12 {
        stroke-linejoin: bevel;
      }

      .cls-3, .cls-7 {
        fill: none;
      }

      .cls-4, .cls-10 {
        fill: #a7a9ac;
      }

      .cls-5 {
        fill: #e6e7e8;
      }

      .cls-6 {
        fill: #231f20;
      }

      .cls-13 {
        fill: #fff;
        stroke-width: 0px;
      }

      .cls-8 {
        fill: #131333;
      }

      .cls-9, .cls-12 {
        fill: #fdfffe;
      }

      .cls-11 {
        fill: #262262;
      }
    </style>
  </defs>
  <g id="Layer_1-2" data-name="Layer 1">
    <g>
      <path class="cls-13" d="M155.03,62.6l13.13-16.68-12.9-16.31h8.47s9.04,11.82,9.04,11.82h1.12s9.01-11.86,9.01-11.86h8.54s-12.92,16.33-12.92,16.33l13.18,16.65h-8.61s-9.18-12.09-9.18-12.09h-1.12s-9.15,12.13-9.15,12.13h-8.61Z"/>
      <path class="cls-13" d="M202.18,62.53l-.04-27.17h-9.66s0-5.81,0-5.81h9.66s0-7.24,0-7.24c0-2.01.62-3.61,1.88-4.82,1.26-1.21,2.94-1.81,5.03-1.81h8.89s0,5.81,0,5.81h-6.58c-1.35.01-2.03.68-2.03,2.02v6.02s9.94-.01,9.94-.01v5.82s-9.93.01-9.93.01l.04,27.17h-7.21Z"/>
      <path class="cls-13" d="M274.61,62.68c-4.16,0-7.61-.88-10.35-2.65-2.75-1.77-4.43-4.46-5.05-8.05l6.37-1.47c.36,1.73.96,3.11,1.8,4.12.84,1.01,1.89,1.73,3.15,2.15,1.26.42,2.62.63,4.08.63,2.17,0,3.84-.41,5.01-1.21,1.17-.8,1.76-1.84,1.75-3.11,0-1.27-.56-2.2-1.66-2.79-1.11-.59-2.74-1.08-4.91-1.45l-2.26-.38c-2.21-.38-4.23-.92-6.04-1.64-1.82-.72-3.25-1.71-4.32-2.98-1.06-1.27-1.6-2.9-1.6-4.88,0-2.96,1.14-5.26,3.44-6.89,2.3-1.63,5.35-2.45,9.15-2.46,3.67,0,6.69.78,9.06,2.37,2.37,1.58,3.91,3.73,4.62,6.44l-6.37,1.72c-.4-1.9-1.24-3.24-2.53-4.03-1.28-.78-2.88-1.17-4.78-1.17-1.86,0-3.32.33-4.38.99-1.06.66-1.59,1.58-1.59,2.76,0,1.27.52,2.2,1.56,2.79,1.04.59,2.44,1.03,4.21,1.33l2.32.38c2.34.38,4.49.9,6.44,1.58,1.95.67,3.49,1.65,4.61,2.91s1.7,2.96,1.7,5.07c0,3.13-1.21,5.57-3.64,7.3-2.43,1.74-5.7,2.61-9.82,2.62Z"/>
      <path class="cls-13" d="M306.71,62.6c-2.1,0-3.77-.6-5.01-1.8-1.24-1.2-1.86-2.81-1.86-4.82l-.03-20.57h-9.53s0-5.82,0-5.82h9.53s-.01-10.93-.01-10.93h7.21s.01,10.91.01,10.91h10.3s0,5.81,0,5.81h-10.3s.03,19.38.03,19.38c0,1.34.66,2.01,1.96,2.01h7.21s0,5.82,0,5.82h-9.53Z"/>
      <path class="cls-13" d="M335.58,62.6c-2.57,0-4.86-.54-6.88-1.64-2.02-1.09-3.6-2.65-4.75-4.67-1.15-2.02-1.73-4.43-1.73-7.24l-.03-19.48h7.09s.03,19.01.03,19.01c0,2.81.74,4.88,2.21,6.22,1.47,1.34,3.51,2,6.13,2,2.89,0,5.22-.94,6.98-2.81,1.76-1.87,2.64-4.55,2.64-8.07l-.02-16.39h7.09s.04,32.43.04,32.43h-6.95s0-4.86,0-4.86h-1.1c-.64,1.32-1.79,2.56-3.43,3.72-1.65,1.16-4.08,1.75-7.29,1.75Z"/>
      <path class="cls-13" d="M375.85,62.52c-4.16,0-7.61-.88-10.35-2.65-2.75-1.77-4.43-4.46-5.05-8.05l6.37-1.47c.36,1.73.96,3.11,1.8,4.12.84,1.01,1.89,1.73,3.15,2.15,1.26.42,2.62.63,4.08.63,2.17,0,3.84-.41,5.01-1.21,1.17-.8,1.76-1.84,1.75-3.11,0-1.27-.56-2.2-1.66-2.79-1.11-.59-2.74-1.08-4.91-1.45l-2.26-.38c-2.21-.38-4.23-.92-6.04-1.64-1.82-.72-3.25-1.71-4.32-2.98-1.06-1.27-1.6-2.9-1.6-4.88,0-2.96,1.14-5.26,3.44-6.89,2.3-1.63,5.35-2.45,9.15-2.46,3.67,0,6.69.78,9.06,2.37,2.37,1.58,3.91,3.73,4.62,6.44l-6.37,1.72c-.4-1.9-1.24-3.24-2.53-4.03-1.28-.78-2.88-1.17-4.78-1.17-1.86,0-3.32.33-4.38.99-1.06.66-1.59,1.58-1.59,2.76,0,1.27.52,2.2,1.56,2.79,1.04.59,2.44,1.03,4.21,1.33l2.32.38c2.34.38,4.49.9,6.44,1.58,1.95.67,3.49,1.65,4.61,2.91,1.13,1.27,1.7,2.96,1.7,5.07,0,3.13-1.21,5.57-3.64,7.3-2.43,1.74-5.7,2.61-9.82,2.62Z"/>
      <path class="cls-13" d="M102.16,62.57c-9.1,0-16.5-7.4-16.5-16.5s7.4-16.5,16.5-16.5h38.08c9.1,0,16.5,7.4,16.5,16.5s-7.4,16.5-16.5,16.5h-38.08ZM127.66,54.95l-26.56-17.71c-4.4.53-7.83,4.28-7.83,8.82,0,4.9,3.99,8.89,8.89,8.89h25.51ZM114.74,37.18l26.56,17.71c4.4-.53,7.83-4.28,7.83-8.82,0-4.9-3.99-8.89-8.89-8.89h-25.51Z"/>
      <g>
        <polygon class="cls-10" points="67.7 27.64 67.7 36.49 59.74 19.97 54.38 19.97 54.38 14.06 51.33 14.06 49.52 12.25 49.52 3.62 50.17 2.73 52.98 5.3 52.98 7.26 56.7 7.26 56.7 16.34 61.63 16.34 61.63 21.28 64.44 21.28 64.44 25.8 66.21 25.8 66.21 27.64 67.7 27.64"/>
        <path class="cls-2" d="M54.38,14.06v5.92h-25.12l-6.55,5.27v-8.96l-10.29-7.15-4.54,4.54v7.77l2.09,2.09h1.88v4.04l2.54.71v3.65l-2.48,2v-1.78l-3.15-1.25v-5.29h-3.89v-13.9c0-.67.27-1.31.74-1.79l5.52-5.52c.65-.65,1.68-.72,2.42-.16l12.24,9.35c.5.38.8.98.8,1.61v.48h20.97V6.93c0-.4.13-.8.37-1.13l1.59-2.19v8.63l1.81,1.81h3.06Z"/>
        <path class="cls-5" d="M66.21,18.13v7.66h-1.77v-4.51h-2.81v-4.94h-4.93V7.26h-3.71v-1.96l-2.81-2.58,1.44-1.98c.31-.42.92-.48,1.3-.13l5.99,5.51,1.6,4.81.83.36,1.84,6.83h3.03Z"/>
        <line class="cls-7" x1="26.59" y1="17.84" x2="26.59" y2="15.7"/>
        <line class="cls-7" x1="47.56" y1="15.7" x2="49.52" y2="15.7"/>
        <polygon class="cls-8" points="37.81 33.94 37.81 37.91 29.97 37.91 29.13 38.36 22.71 41.75 17.09 44.72 12.87 46.95 8.88 46.53 8.77 46.49 7.93 46.23 7.93 37.32 11.91 33.94 14.4 31.94 22.71 25.25 29.26 19.97 31.39 19.97 31.39 21.79 29.38 21.79 29.38 24.73 26.44 24.73 26.44 26.51 28.43 26.51 28.43 29.9 32.19 29.9 32.19 33.94 37.81 33.94"/>
        <polygon class="cls-11" points="67.7 36.49 67.7 41.9 67.14 41.59 60.51 37.91 37.81 37.91 37.81 33.94 32.19 33.94 32.19 29.9 28.43 29.9 28.43 26.51 26.44 26.51 26.44 24.73 29.38 24.73 29.38 21.79 31.39 21.79 31.39 19.97 59.74 19.97 67.7 36.49"/>
        <path class="cls-9" d="M69.01,68.44l.76.55-4.45,4.69s-.82-.16-1.93-.31c-1.36-.2-3.15-.4-4.37-.34-2.2.12-6.06-.53-8.85-2.91l-.89,1.01h-4.22l-6.77,5.02-2.44,1.81-14.2-10.93-7.49,1.78-4.04-.77-.15-1.02,5.08-1.02,2.67-1.32,3.92-.93.3-1.41-1.37-5.64,5.35-5.47s1.84.59,2.49,1.25c.65.65,4.34-.55,4.34-.55v5.54h2.97v1.25h9.56l2.85-1.78v-7.54h-1.42v-2.44h-2.91v-1.48h-6l-1.53.59h-1.92v-1.34h-2.26l-.65-2.82-1.37-.59-.97-2.94.85-.45h30.54l6.63,3.67v2.51l-.99-.71h-4.22l-1.96,2.14h-2.49l-1.48,1.43h-2.32v6.71h2.55l2.02,3.56h8.89v5.35l2.63,2.85-1.32,2.61-1.02-.49h-2.02v.49h-1.18v.4h4.77Z"/>
        <path class="cls-10" d="M32.77,48.85v3.07s-3.68,1.2-4.34.55c-.65-.65-2.49-1.25-2.49-1.25l-5.35,5.47,1.37,5.64-.3,1.41-3.92.93-2.67,1.32-5.08,1.02-.2-1.36h1.77l2.85-2.37c-6.55,1.55-10.56.65-10.56.65v-.42l-3.45-1.43s9.33-1.07,15.27-4.87c5.94-3.8,7.05-15.47,7.05-15.47l6.42-3.39.97,2.94,1.37.59.65,2.82h-3.68v1.52l.53.71,1.66.53v1.37h2.14Z"/>
        <path class="cls-4" d="M17.09,44.72c-.88,4.19-3.51,6.27-3.51,6.27h-3.62l-2.02-1.54h-1.31v-1.13l2.14-.71v-1.11l.12.04,3.98.42,4.22-2.23Z"/>
        <path class="cls-9" d="M14.4,63.29l-2.85,2.37h-1.77l-5.94-.77v-.95s4.01.91,10.56-.65Z"/>
        <polygon class="cls-6" points="69.01 68.44 64.24 68.44 64.24 68.03 65.42 68.03 65.42 67.54 67.44 67.54 68.46 68.03 69.01 68.44"/>
        <rect class="cls-1" x="62.71" y="51.22" width="4.44" height="6"/>
        <polygon class="cls-9" points="67.14 44.09 67.14 47.72 63.24 47.72 63.24 50.09 62.77 50.09 62.77 51.22 61.34 51.22 61.34 57.22 58.25 57.22 56.23 53.66 54.38 53.66 64.66 43.38 66.15 43.38 67.14 44.09"/>
        <polyline class="cls-7" points="21.66 67.02 24.21 67.02 24.69 64.77 27.83 64.77 29.38 62.33"/>
        <line class="cls-7" x1="35.08" y1="44.72" x2="34.37" y2="44.72"/>
        <line class="cls-7" x1="28.43" y1="44.72" x2="24.45" y2="44.72"/>
        <polygon class="cls-6" points="67.14 47.72 67.14 51.22 62.77 51.22 62.77 50.09 63.24 50.09 63.24 47.72 67.14 47.72"/>
        <rect class="cls-6" x="61.34" y="51.22" width="1.37" height="6"/>
        <line class="cls-7" x1="67.44" y1="67.54" x2="64.24" y2="66"/>
        <path class="cls-7" d="M50.17,70.11l2.06-2.57s1.07-1.33,3.56-.52"/>
        <path class="cls-4" d="M63.39,73.36l-4.55,2.79h-20.55l6.77-5.02h4.22l.89-1.01c2.79,2.38,6.65,3.03,8.85,2.91,1.21-.06,3.01.14,4.37.34Z"/>
        <line class="cls-7" x1="16.55" y1="61.5" x2="14.4" y2="63.29"/>
        <polygon class="cls-6" points="48.15 49.38 48.15 51.71 44.94 51.71 44.94 49.39 46.73 49.38 48.15 49.38"/>
        <rect class="cls-6" x="40.85" y="51.71" width="2.94" height="7"/>
        <polygon class="cls-1" points="48.15 51.71 48.15 56.92 45.3 58.71 43.79 58.71 43.79 51.71 48.15 51.71"/>
        <polygon class="cls-9" points="46.73 46.95 46.73 49.38 44.94 49.39 44.94 51.71 40.85 51.71 40.85 58.71 35.74 58.71 35.74 57.46 32.77 57.46 32.77 57.01 44.65 46.95 46.73 46.95"/>
        <polygon class="cls-5" points="32.77 48.85 30.63 48.85 30.63 47.48 28.96 46.95 28.43 46.23 28.43 44.72 34.37 44.72 34.37 46.05 36.29 46.05 37.82 45.46 43.82 45.46 43.82 46.95 44.65 46.95 32.77 57.01 32.77 48.85"/>
        <path class="cls-12" d="M22.71,41.75s-1.11,11.67-7.05,15.47c-5.94,3.8-15.27,4.87-15.27,4.87v-3.45h3.09l6.06-3.15.59.24,3.45-4.75s2.63-2.08,3.51-6.27l5.62-2.97Z"/>
        <polygon class="cls-10" points="22.71 16.29 22.71 25.25 14.4 31.94 14.4 28.29 11.86 27.58 11.86 23.54 14.02 23.54 14.02 16.77 17.67 16.77 17.67 14.75 16.55 14.75 12.43 9.14 22.71 16.29"/>
        <polygon class="cls-5" points="17.67 14.75 17.67 16.77 14.02 16.77 14.02 23.54 9.98 23.54 7.89 21.45 7.89 13.68 12.43 9.14 16.55 14.75 17.67 14.75"/>
        <polyline class="cls-3" points="14.4 28.29 15.47 27.22 15.47 22.11 16.55 22.11 16.55 19.97"/>
        <polygon class="cls-5" points="64.66 43.38 54.38 53.66 53.68 53.66 53.68 46.95 55.99 46.95 57.48 45.52 59.97 45.52 61.94 43.38 64.66 43.38"/>
      </g>
      <path class="cls-13" d="M238.84,62.61c-3.53,0-6.67-.61-9.43-1.83-2.75-1.22-4.9-3-6.44-5.32-1.54-2.32-2.31-5.09-2.32-8.29v-1.18s7.22,0,7.22,0v1.05c0,2.9,1.01,5.19,3,6.87,2,1.69,4.65,2.53,7.95,2.52s5.87-.8,7.7-2.38c1.83-1.58,2.75-3.58,2.74-5.99v-.59c0-1.71-.44-3.09-1.31-4.14-.87-1.05-2.04-1.83-3.51-2.33-1.47-.5-3.12-.75-4.95-.75h-8.74s-.01-7.95-.01-7.95l16.91-9.57v-.92s-25.87.03-25.87.03v-6.19s33.71-.05,33.71-.05v9.35s-16.14,9.24-16.14,9.24v.92s2.96,0,2.96,0c2.43,0,4.72.43,6.88,1.31,2.16.88,3.91,2.21,5.27,4.01,1.35,1.8,2.03,4.08,2.04,6.84v.79c0,2.94-.73,5.5-2.19,7.67-1.47,2.17-3.53,3.87-6.19,5.08-2.66,1.21-5.75,1.82-9.29,1.82Z"/>
    </g>
  </g>
</svg>