<?xml version="1.0" encoding="UTF-8"?>
<svg id="Layer_2" data-name="Layer 2" xmlns="http://www.w3.org/2000/svg" viewBox="0 0 401.78 73.64">
  <defs>
    <style>
      .cls-1 {
        fill: #fff;
        stroke-width: 0px;
      }

      .cls-2 {
        fill: none;
        stroke: #fff;
        stroke-miterlimit: 10;
        stroke-width: 2.04px;
      }
    </style>
  </defs>
  <g id="Layer_1-2" data-name="Layer 1">
    <g>
      <path class="cls-1" d="M46.95,70.78l19.82-25.18-19.47-24.62,12.78-.02,13.65,17.86h1.69s13.6-17.9,13.6-17.9l12.88-.02-19.5,24.68,19.89,25.13-12.99.02-13.86-18.27h-1.69s-13.81,18.31-13.81,18.31l-12.99.02Z"/>
      <path class="cls-1" d="M119.31,70.75l-.06-41.01-14.57.02v-8.79s14.56-.02,14.56-.02v-10.91c-.02-3.03.93-5.46,2.83-7.28,1.9-1.82,4.43-2.73,7.6-2.74l13.41-.02v8.79s-9.92.01-9.92.01c-2.04,0-3.06,1.01-3.06,3.03v9.09s15.01-.02,15.01-.02v8.79s-14.98.02-14.98.02l.06,41.01h-10.88Z"/>
      <path class="cls-1" d="M277.1,70.85c-3.17,0-5.7-.9-7.56-2.72-1.87-1.82-2.81-4.24-2.81-7.28l-.04-31.05-14.38.02v-8.8s14.37-.02,14.37-.02l-.02-16.48h10.89s.02,16.47.02,16.47l15.54-.02v8.8s-15.53.02-15.53.02l.04,29.23c0,2.02.99,3.03,2.96,3.03h10.89s.01,8.78.01,8.78l-14.38.02Z"/>
      <path class="cls-1" d="M320.68,70.85c-3.88,0-7.34-.82-10.39-2.47-3.05-1.65-5.44-4-7.18-7.04-1.74-3.04-2.61-6.69-2.61-10.92l-.04-29.4h10.7s.04,28.69.04,28.69c0,4.24,1.12,7.37,3.34,9.38,2.22,2.02,5.3,3.02,9.25,3.02,4.36,0,7.87-1.42,10.53-4.24,2.66-2.82,3.99-6.88,3.98-12.17l-.03-24.74h10.7s.07,48.96.07,48.96h-10.49s-.01-7.34-.01-7.34h-1.66c-.97,1.99-2.7,3.86-5.18,5.62-2.49,1.76-6.16,2.64-11.01,2.65Z"/>
      <path class="cls-1" d="M381.46,70.73c-6.28,0-11.49-1.33-15.63-4-4.14-2.68-6.69-6.73-7.63-12.16l9.61-2.22c.54,2.62,1.44,4.69,2.71,6.22,1.27,1.53,2.86,2.62,4.76,3.25,1.9.64,3.96.95,6.16.95,3.27,0,5.79-.61,7.56-1.83,1.77-1.21,2.65-2.78,2.65-4.7,0-1.92-.84-3.32-2.51-4.21-1.67-.89-4.14-1.62-7.41-2.19l-3.41-.57c-3.34-.57-6.38-1.4-9.12-2.48-2.74-1.08-4.91-2.58-6.52-4.49-1.6-1.91-2.41-4.37-2.41-7.37,0-4.47,1.72-7.94,5.19-10.4,3.47-2.46,8.07-3.7,13.82-3.71,5.54,0,10.1,1.18,13.68,3.57,3.57,2.39,5.9,5.63,6.97,9.71l-9.61,2.6c-.61-2.87-1.88-4.9-3.81-6.08-1.94-1.18-4.34-1.77-7.21-1.76-2.8,0-5.01.5-6.61,1.49-1.6.99-2.4,2.38-2.4,4.17,0,1.92.79,3.32,2.36,4.21,1.57.89,3.69,1.56,6.36,2l3.51.57c3.54.57,6.78,1.36,9.72,2.38,2.94,1.02,5.26,2.48,6.97,4.4,1.71,1.91,2.56,4.47,2.56,7.66,0,4.73-1.83,8.4-5.49,11.02-3.67,2.62-8.61,3.94-14.82,3.95Z"/>
      <path class="cls-2" d="M226.97,20.98h-57.49c-13.74,0-24.91,11.18-24.91,24.92s11.17,24.91,24.91,24.91h57.49c13.73,0,24.91-11.18,24.91-24.91s-11.18-24.92-24.91-24.92ZM169.48,59.3c-7.39,0-13.42-6.01-13.42-13.41,0-6.86,5.17-12.53,11.81-13.32l40.1,26.73h-38.5ZM228.56,59.21l-40.09-26.73h38.5c7.39,0,13.41,6.01,13.41,13.42,0,6.85-5.17,12.52-11.81,13.31Z"/>
      <path class="cls-1" d="M240.38,45.89c0,6.85-5.17,12.52-11.81,13.31l-40.09-26.73h38.5c7.39,0,13.41,6.01,13.41,13.42Z"/>
      <path class="cls-1" d="M207.98,59.3h-38.5c-7.39,0-13.42-6.01-13.42-13.41,0-6.86,5.17-12.53,11.81-13.32l40.1,26.73Z"/>
      <path class="cls-1" d="M21.93,73.64c-6.67,0-11.98-1.86-15.95-5.62C2.02,64.26.03,58.6.02,51.02L0,37.22c-.01-7.41,1.96-13.05,5.92-16.9,3.96-3.85,9.27-5.78,15.93-5.79,6.72,0,12.06,1.9,16.03,5.74,3.97,3.84,5.95,9.46,5.96,16.88l.02,13.8c0,7.58-1.96,13.25-5.92,17.02-3.96,3.77-9.29,5.66-16.02,5.66ZM21.92,66.01c4.53,0,7.89-1.3,10.08-3.87,2.18-2.57,3.27-6.19,3.26-10.84l-.02-14.61c0-4.65-1.19-8.24-3.54-10.75-2.35-2.51-5.63-3.77-9.84-3.76-4.26,0-7.54,1.3-9.83,3.87-2.29,2.57-3.43,6.13-3.43,10.68l.02,14.61c0,4.76,1.12,8.4,3.33,10.92,2.22,2.51,5.54,3.77,9.96,3.76Z"/>
    </g>
  </g>
</svg>